<svg width="47" height="10" fill="none" xmlns="http://www.w3.org/2000/svg"><path fill-rule="evenodd" clip-rule="evenodd" d="M5.1 2.298c2.887 0 4.4 1.033 4.4 2.985v1.903c.002.9.017 1.4.072 1.875l.01.094c.02.158.045.315.074.486h-1.4a9.63 9.63 0 0 1-.1-1.471C7.323 9.344 5.894 9.91 3.53 9.91 1.394 9.91.007 9.132.007 7.788c0-.637.27-1.189.75-1.543.51-.367 1.175-.622 2.971-.721l4.415-.255v-.141C8.143 3.996 7.01 3.33 5.1 3.33c-1.939 0-3.113.552-3.34 1.599H.277c.227-1.557 2.038-2.632 4.825-2.632Zm10.703 0c2.433 0 4.003.65 4.71 1.755l-1.145.551c-.68-.877-1.712-1.273-3.693-1.273-1.74 0-2.547.382-2.547 1.118 0 .58.524.849 1.458.92l3.438.268c1.84.156 2.56.75 2.56 1.91 0 1.4-1.174 2.363-4.102 2.363-2.59 0-4.103-.736-4.966-2.037l1.117-.609c.637 1.033 1.953 1.599 4.033 1.599 1.712 0 2.575-.396 2.575-1.231 0-.58-.34-.807-1.458-.891l-3.41-.27c-1.683-.14-2.574-.735-2.574-1.966 0-1.372 1.5-2.207 4.004-2.207Zm25.67 0c3.014 0 5.08 1.528 5.08 3.806s-2.066 3.806-5.08 3.806c-3.013 0-5.079-1.528-5.079-3.806s2.066-3.806 5.08-3.806ZM24.838.176v2.39h3.537v1.062h-3.537V6.91c0 1.217.665 1.698 1.895 1.698.58 0 1.175-.085 1.67-.198v1.146c-.354.156-1.16.283-1.825.283-2.617 0-3.098-1.4-3.098-2.801v-3.41h-2.222V2.567h2.222V.727l1.358-.551Zm10.037 2.179c.381 0 .636.014.933.085V3.74a4.91 4.91 0 0 0-.948-.085c-1.117 0-1.754.312-2.25.863-.565.595-.763 1.458-.763 2.476v2.646h-1.344V2.567h1.245v2.051c.41-1.372 1.613-2.263 3.127-2.263ZM8.143 6.189l-4.146.254c-1.995.128-2.56.496-2.56 1.316 0 .764.905 1.146 2.546 1.146 2.42 0 4.16-.905 4.16-2.39v-.326Zm33.33-2.773c-2.22 0-3.65 1.047-3.65 2.688 0 1.641 1.43 2.688 3.65 2.688 2.208 0 3.65-1.047 3.65-2.688 0-1.641-1.442-2.688-3.65-2.688Z" fill="currentColor"/></svg>