<svg width="26" height="36" fill="none" xmlns="http://www.w3.org/2000/svg"><path fill-rule="evenodd" clip-rule="evenodd" d="M18.44.879c.286.356.432.835.724 1.795l6.383 20.968a26.558 26.558 0 0 0-7.631-2.584L13.76 7.014a.54.54 0 0 0-1.038.002L8.617 21.05a26.561 26.561 0 0 0-7.665 2.587L7.366 2.67c.293-.958.44-1.437.726-1.792.253-.313.582-.557.955-.707C9.471 0 9.972 0 10.974 0h4.58c1.004 0 1.506 0 1.93.17.373.151.702.395.955.709Z" fill="currentColor"/><path fill-rule="evenodd" clip-rule="evenodd" d="M19.203 24.64c-1.052.9-3.152 1.513-5.571 1.513-2.97 0-5.458-.925-6.118-2.168-.236.713-.29 1.528-.29 2.049 0 0-.155 2.558 1.624 4.337a1.672 1.672 0 0 1 1.673-1.673c1.583 0 1.581 1.381 1.58 2.502v.1c0 1.701 1.04 3.16 2.518 3.774a3.43 3.43 0 0 1-.345-1.503c0-1.622.953-2.227 2.06-2.929.88-.558 1.859-1.179 2.533-2.424.363-.67.553-1.421.552-2.184 0-.473-.073-.944-.216-1.394Z" fill="#FF5D01"/><path fill-rule="evenodd" clip-rule="evenodd" d="M19.203 24.64c-1.052.9-3.152 1.513-5.571 1.513-2.97 0-5.458-.925-6.118-2.168-.236.713-.29 1.528-.29 2.049 0 0-.155 2.558 1.624 4.337a1.672 1.672 0 0 1 1.673-1.673c1.583 0 1.581 1.381 1.58 2.502v.1c0 1.701 1.04 3.16 2.518 3.774a3.43 3.43 0 0 1-.345-1.503c0-1.622.953-2.227 2.06-2.929.88-.558 1.859-1.179 2.533-2.424.363-.67.553-1.421.552-2.184 0-.473-.073-.944-.216-1.394Z" fill="url(#a)"/><defs><linearGradient id="a" x1="23.941" y1="19.439" x2="18.591" y2="30.638" gradientUnits="userSpaceOnUse"><stop stop-color="#FF1639"/><stop offset="1" stop-color="#FF1639" stop-opacity="0"/></linearGradient></defs></svg>