<svg width="35" height="36" fill="none" xmlns="http://www.w3.org/2000/svg"><path d="M30.752 18H22.19v2.447h5.872c-.856 3.67-3.548 6.728-7.095 7.952l-14.07-14.07C8.365 10.049 12.524 7 17.295 7c3.67 0 6.973 1.836 9.053 4.65l1.835-1.6c-2.447-3.302-6.36-5.504-10.888-5.504-6.36 0-11.744 4.526-13.1 10.52l16.148 16.148C26.226 29.743 30.752 24.36 30.752 18Zm-26.914.122c0 3.425 1.346 6.728 3.915 9.297 2.569 2.569 5.994 3.915 9.297 3.915L3.838 18.122Z" fill="#fff"/><path d="M17.295.873C7.875.873.168 8.58.168 18c0 9.42 7.707 17.127 17.127 17.127 9.42 0 17.127-7.707 17.127-17.127 0-9.42-7.707-17.127-17.127-17.127Zm-9.542 26.67c-2.57-2.57-3.915-5.994-3.915-9.297l13.334 13.212c-3.425-.122-6.85-1.346-9.42-3.915h.001ZM20.23 31.1 4.205 15.064c1.346-5.994 6.728-10.52 13.1-10.52 4.526 0 8.44 2.202 10.888 5.505l-1.835 1.6c-2.08-2.814-5.383-4.65-9.053-4.65-4.77 0-8.808 3.058-10.398 7.34l14.068 14.068c3.548-1.223 6.24-4.282 7.095-7.952h-5.88V18h8.563c0 6.36-4.526 11.744-10.52 13.1h-.003Z" fill="#639"/></svg>