<svg width="69" height="24" fill="none" xmlns="http://www.w3.org/2000/svg"><path d="M25.63 7.75h2.8v10h-2.8v-1.3c-1 1.5-2.3 1.6-3.1 1.6-3.1 0-5.1-2.4-5.1-5.3 0-3 2-5.3 4.9-5.3.8 0 2.3.1 3.2 1.6v-1.3h.1Zm-5.2 5c0 1.6 1.1 2.8 2.8 2.8a2.729 2.729 0 0 0 2.8-2.8c0-1.6-1.1-2.8-2.8-2.8a2.73 2.73 0 0 0-2.8 2.8Zm13.5-2.6v7.6h-2.8v-7.6h-1.1v-2.4h1.1v-3.4h2.8v3.4h1.9v2.4h-1.9Zm8.5 0c-.7-.6-1.3-.7-1.6-.7-.7 0-1.1.3-1.1.8 0 .3.1.6.9.9l.7.2c.8.3 2 .6 2.5 1.4.3.4.5 1 .5 1.7 0 .9-.3 1.8-1.1 2.5s-1.8 1.1-3 1.1c-2.1 0-3.2-1-3.9-1.7l1.5-1.7c.6.6 1.4 1.2 2.2 1.2.8 0 1.4-.4 1.4-1.1 0-.6-.5-.9-.9-1l-.6-.2c-.7-.3-1.5-.6-2.1-1.2-.5-.5-.8-1.1-.8-1.9 0-1 .5-1.8 1-2.3.8-.6 1.8-.7 2.6-.7.7 0 1.9.1 3.2 1.1l-1.4 1.6Zm6.1-1.1c1-1.4 2.4-1.6 3.2-1.6 2.9 0 4.9 2.3 4.9 5.3s-2 5.3-5 5.3c-.6 0-2.1-.1-3.2-1.6v1.3h-2.7V.95h2.8v8.1Zm-.3 3.7c0 1.6 1.1 2.8 2.8 2.8a2.729 2.729 0 0 0 2.8-2.8c0-1.6-1.1-2.8-2.8-2.8-1.7 0-2.8 1.2-2.8 2.8Zm13 3.5-4.8-8.5h3.3l3.1 5.7 2.8-5.7h3.2l-8 15.3h-3.2l3.6-6.8Zm-44.5-6.8h-7v2.8h3.7c-.6 1.9-2 3.2-4.6 3.2-2.9 0-5-2.4-5-5.3s2-5.4 4.9-5.4c1.6 0 3.2.8 4.2 2.1l2.3-1.5c-1.5-2.1-3.9-3.3-6.5-3.3-4.4 0-8 3.6-8 8.1s3.4 8.1 8 8.1 8-3.6 8-8.1c.1-.3 0-.5 0-.7Z" fill="currentColor"/></svg>