<svg width="39" height="9" fill="none" xmlns="http://www.w3.org/2000/svg"><path d="M4.208 5.501 2.294.827 2.29.814H.801v.314h.24a.273.273 0 0 1 .27.276L1.27 6.108c0 .146-.12.267-.266.27l-.245.005v.31h1.45v-.31l-.15-.004a.274.274 0 0 1-.266-.271V1.675l2.086 5.018a.19.19 0 0 0 .176.12.19.19 0 0 0 .175-.12l2.039-4.906.03 4.32c0 .151-.12.272-.27.276h-.155v.31h1.699v-.31H7.34a.278.278 0 0 1-.27-.271l-.013-4.704a.275.275 0 0 1 .266-.276l.249-.004V.814h-1.45L4.208 5.501Zm13.343.8a.26.26 0 0 1-.073-.19v-2.31c0-.44-.129-.785-.387-1.03-.254-.246-.607-.371-1.045-.371-.616 0-1.102.25-1.441.741-.005.009-.018.013-.03.013-.013 0-.022-.008-.022-.021l-.16-.617h-.266l-.684.392v.216h.176c.082 0 .15.022.198.065.048.043.073.107.073.198v2.72a.26.26 0 0 1-.073.19.26.26 0 0 1-.189.073h-.172v.315h1.574V6.37h-.172a.26.26 0 0 1-.189-.073.26.26 0 0 1-.073-.19V4.305c0-.228.052-.457.146-.681.1-.22.245-.405.439-.548a1.14 1.14 0 0 1 .693-.21c.3 0 .529.094.67.284.143.19.216.435.216.728v2.225a.26.26 0 0 1-.073.19.259.259 0 0 1-.19.073h-.172v.315H17.9v-.315h-.172a.217.217 0 0 1-.177-.065Zm14.386-5.135A3.044 3.044 0 0 0 30.49.814h-2.048v.313h.2c.077 0 .146.03.214.099a.304.304 0 0 1 .098.215v4.617c0 .078-.034.15-.098.215a.3.3 0 0 1-.214.099h-.2v.313h2.048c.525 0 1.011-.12 1.447-.352.435-.232.789-.575 1.045-1.013.256-.437.388-.965.388-1.566 0-.601-.132-1.125-.388-1.567a2.663 2.663 0 0 0-1.045-1.021Zm.61 2.58c0 .549-.098 1.012-.29 1.385-.192.374-.448.653-.764.833-.316.18-.666.27-1.041.27h-.414a.29.29 0 0 1-.214-.098.303.303 0 0 1-.098-.215V1.565c0-.077.03-.146.098-.214a.3.3 0 0 1 .214-.1h.414c.375 0 .725.09 1.04.271.316.18.573.46.765.833.192.377.29.845.29 1.39Zm5.664.313c-.189-.22-.555-.404-.984-.503.593-.296.898-.712.898-1.249 0-.291-.077-.553-.232-.776a1.544 1.544 0 0 0-.654-.528 2.388 2.388 0 0 0-.976-.189h-2.319v.313h.185c.078 0 .147.03.215.099a.303.303 0 0 1 .1.215v4.617c0 .078-.035.15-.1.215a.304.304 0 0 1-.215.099h-.202v.313h2.517c.382 0 .74-.064 1.062-.193.323-.129.58-.318.766-.567a1.46 1.46 0 0 0 .284-.905c-.005-.378-.117-.7-.345-.961ZM35.325 6.14a.302.302 0 0 1-.099-.215V3.852h1.196c.421 0 .744.108.968.322.224.215.335.494.335.837 0 .206-.052.408-.146.592a1.13 1.13 0 0 1-.443.455 1.376 1.376 0 0 1-.714.176h-.882a.306.306 0 0 1-.215-.094Zm-.094-2.73V1.57c0-.078.03-.147.099-.215a.304.304 0 0 1 .215-.099h.567c.409 0 .71.103.9.3.188.202.283.46.283.777 0 .326-.09.588-.266.786-.177.193-.444.291-.796.291H35.23Zm-23.674-.737a2.253 2.253 0 0 0-1.093-.273c-.386 0-.748.085-1.067.26l-.025.013c-.329.18-.59.44-.781.77-.192.33-.29.715-.29 1.142 0 .428.098.813.29 1.142.192.33.452.59.78.77.33.18.697.274 1.093.274.387 0 .75-.085 1.067-.26l.026-.014c.329-.18.59-.44.781-.77.192-.33.29-.714.29-1.142 0-.427-.098-.812-.29-1.142a2.016 2.016 0 0 0-.78-.77Zm.316 1.912c0 .526-.128.954-.384 1.262-.252.308-.598.466-1.025.466-.419 0-.76-.153-1.01-.45l-.014-.016c-.256-.308-.384-.736-.384-1.262 0-.516.123-.938.37-1.245l.014-.017c.252-.307.598-.466 1.024-.466.427 0 .773.158 1.025.466.256.308.384.736.384 1.262Zm14.812-1.912a2.253 2.253 0 0 0-1.093-.273c-.386 0-.749.085-1.067.26l-.026.013c-.328.18-.589.44-.78.77-.193.33-.291.715-.291 1.142 0 .428.098.813.29 1.142.192.33.453.59.781.77.329.18.696.274 1.093.274.387 0 .749-.085 1.067-.26l.026-.014c.329-.18.589-.44.78-.77.193-.33.291-.714.291-1.142 0-.427-.098-.812-.29-1.142a2.046 2.046 0 0 0-.781-.77ZM27 4.585c0 .526-.128.954-.385 1.262-.251.308-.597.466-1.024.466-.42 0-.76-.153-1.01-.45l-.014-.016c-.257-.308-.385-.736-.385-1.262 0-.52.124-.938.37-1.245l.015-.017c.251-.307.597-.466 1.024-.466.427 0 .773.158 1.024.466.252.308.385.736.385 1.262ZM20.584 2.4c-.344 0-.658.073-.941.219a1.665 1.665 0 0 0-.667.597 1.515 1.515 0 0 0-.24.825c0 .266.06.511.184.73.12.211.284.387.49.533l-.614.834a.337.337 0 0 0 .27.537h.177a1.3 1.3 0 0 0-.392.396l-.012.02a1.101 1.101 0 0 0-.168.576c0 .363.158.664.469.89l.017.013c.318.227.765.343 1.328.343.391 0 .765-.064 1.105-.189.334-.12.607-.298.812-.53l.018-.02c.21-.24.318-.532.318-.867 0-.353-.13-.602-.43-.843-.258-.202-.662-.309-1.165-.309h-1.72a.012.012 0 0 1-.006-.003l-.002-.001-.001-.002c0-.003-.002-.008 0-.011l.448-.602c.106.05.217.087.33.112.104.021.22.03.35.03.36 0 .687-.073.97-.22a1.72 1.72 0 0 0 .676-.596c.163-.25.245-.529.245-.825 0-.318-.155-.898-.576-1.195l.002-.004h.002l.924.103v-.425h-1.479a2.396 2.396 0 0 0-.722-.116Zm.516 2.69c-.163.085-.34.133-.516.133-.288 0-.542-.104-.756-.305-.215-.202-.323-.499-.323-.877s.108-.675.323-.877a1.074 1.074 0 0 1 1.252-.182l.02.01c.163.087.297.22.404.396.103.176.16.395.16.653 0 .262-.053.481-.16.653-.103.176-.24.31-.404.395Zm-1.165 1.58H21.1c.322 0 .529.065.666.203a.735.735 0 0 1 .207.537.924.924 0 0 1-.374.764c-.25.194-.585.293-.998.293-.36 0-.662-.082-.881-.237-.22-.154-.331-.39-.331-.692 0-.189.052-.365.155-.52a.983.983 0 0 1 .39-.347h.001Z" fill="currentColor"/></svg>