<svg width="98" height="36" fill="none" xmlns="http://www.w3.org/2000/svg"><path fill-rule="evenodd" clip-rule="evenodd" d="m4.37 8.978.123 2.198c1.403-1.7 3.245-2.55 5.525-2.55 3.951 0 5.962 2.268 6.032 6.804v12.568h-4.26V15.676c0-1.207-.26-2.1-.78-2.681-.52-.58-1.37-.87-2.552-.87-1.719 0-3 .78-3.84 2.338v13.535H.356V8.978h4.016-.002ZM28.748 28.35c-2.7 0-4.89-.852-6.567-2.557-1.678-1.705-2.517-3.976-2.517-6.812v-.527c0-1.898.365-3.595 1.096-5.09.73-1.493 1.757-2.656 3.078-3.49 1.321-.83 2.794-1.246 4.42-1.246 2.583 0 4.58.826 5.988 2.478 1.41 1.653 2.114 3.99 2.114 7.014v1.723h-12.4c.13 1.57.652 2.812 1.57 3.726.918.914 2.073 1.37 3.464 1.37 1.952 0 3.542-.79 4.77-2.372l2.297 2.198c-.76 1.136-1.774 2.018-3.042 2.645-1.269.627-2.692.94-4.27.94Zm-.508-16.294c-1.17 0-2.113.41-2.832 1.23-.72.82-1.178 1.963-1.377 3.428h8.12v-.317c-.094-1.43-.474-2.51-1.14-3.243-.667-.732-1.59-1.098-2.77-1.098Zm16.765-7.7v4.623h3.35v3.164h-3.35V22.76c0 .726.144 1.25.43 1.573.286.322.798.483 1.535.483a6.547 6.547 0 0 0 1.49-.176v3.305c-.97.27-1.905.404-2.806.404-3.273 0-4.91-1.81-4.91-5.431V12.142H37.62V8.978h3.122V4.355h4.263Zm11.137 23.643H51.88v-27h4.262v27Zm9.172 0h-4.262V8.979h4.262v19.02ZM60.79 4.039c0-.655.207-1.2.622-1.634.416-.433 1.01-.65 1.78-.65.772 0 1.368.217 1.79.65.42.434.63.979.63 1.635 0 .644-.21 1.18-.63 1.608-.422.428-1.018.642-1.79.642-.77 0-1.364-.214-1.78-.642-.415-.427-.622-.964-.622-1.608v-.001Zm10.663 23.96V12.142h-2.894V8.978h2.894v-1.74c0-2.11.584-3.738 1.753-4.887 1.17-1.148 2.806-1.722 4.91-1.722.75 0 1.544.105 2.386.316l-.105 3.34a8.375 8.375 0 0 0-1.63-.14c-2.036 0-3.053 1.048-3.053 3.146v1.687h3.858v3.164h-3.858v15.856h-4.26Zm17.87-6.117L93.18 8.979h4.542l-7.54 21.903c-1.158 3.199-3.122 4.799-5.893 4.799-.62 0-1.304-.106-2.052-.317v-3.305l.807.053c1.075 0 1.885-.196 2.43-.59.542-.391.972-1.05 1.288-1.976l.613-1.635-6.664-18.932h4.595l4.016 12.903Z" fill="currentColor"/></svg>