<svg width="96" height="28" viewBox="0 0 96 28" fill="none" xmlns="http://www.w3.org/2000/svg">
<path d="M17.6 13.2444C19.8 10.5444 19.9 7.54444 18.7 4.54444C17.5 1.54444 15 0.144444 11.9 0.0444444C8.2 -0.0555556 4.4 0.0444444 0.700001 0.0444444H0V25.9444H3V16.1444H7.7C8.3 16.1444 8.8 16.3444 9.1 16.8444L15.1 26.1444C15.2 26.3444 15.5 26.6444 15.7 26.6444H19.6C17.2 22.9444 14.9 19.4444 12.5 15.8444C14.6 15.5444 16.4 14.8444 17.6 13.2444ZM3 13.0444V3.14444H4.1C6.4 3.14444 8.8 3.04445 11.1 3.24445C13.8 3.34445 15.7 5.44444 15.7 8.14444C15.7 10.8444 13.5 12.9444 10.8 13.0444C8.4 13.1444 6 13.0444 3 13.0444ZM41.7 14.3444C40.1 7.34445 33.7 5.54445 28.8 7.74445C25 9.44445 23.3 12.7444 23.2 16.8444C23.1 19.9444 24 22.7444 26.4 24.8444C29.1 27.2444 32.4 27.5444 35.8 26.9444C37.7 26.5444 39.4 25.6444 40.7 24.2444C40.2 23.5444 39.7 22.8444 39.2 22.2444C36.4 24.6444 33.3 25.4444 29.9 23.8444C27.7 22.7444 26.6 20.0444 26.4 18.0444H41.9V16.7444C42 15.8444 41.9 15.0444 41.7 14.3444ZM26.6 15.9444C26.3 12.9444 29.3 9.74445 32.6 9.74445C36.4 9.64445 38.8 11.9444 38.9 15.9444H26.6ZM57.3 7.24445C55.8 6.94445 54.2 6.84445 52.7 6.94445C50.3 7.14445 48.2 8.24444 46.5 10.0444C47 10.7444 47.4 11.4444 48 12.2444C48.2 12.0444 48.4 11.8444 48.6 11.7444C50.2 10.2444 52.1 9.44444 54.4 9.64444C56.2 9.74444 57.9 10.3444 58.4 12.1444C58.8 13.5444 58.7 15.0444 58.8 16.5444C58.5 16.5444 58.4 16.4444 58.3 16.3444C55.9 14.3444 53.2 13.9444 50.3 14.6444C47.6 15.3444 45.9 17.4444 45.7 20.1444C45.5 23.2444 46.9 25.5444 49.6 26.6444C51.3 27.3444 53.2 27.3444 55 26.9444C56.4 26.6444 57 25.8444 59 24.7444V26.0444H61.8C61.8 22.0444 61.9 17.1444 61.8 12.5444C61.8 9.64444 60.1 7.84445 57.3 7.24445ZM58.7 19.8444C58.6 20.1444 58.7 20.4444 58.7 20.7444C58.7 22.8444 58.2 23.5444 56.2 24.3444C54.8 24.8444 53.3 25.0444 51.8 24.5444C50.1 24.0444 48.9 22.5444 48.9 20.8444C48.8 19.1444 49.9 17.4444 51.6 16.9444C53.9 16.1444 56 16.6444 57.9 18.0444C58.5 18.5444 58.9 19.0444 58.7 19.8444ZM74.3 9.94445C76.9 9.14445 79.3 9.64445 81.1 11.8444L81.4 12.0444C82.1 11.4444 82.7 10.8444 83.5 10.1444C83.2 9.84444 83.1 9.64445 82.9 9.34445C80 6.24445 74.3 5.84445 70.8 8.34445C65.9 11.9444 66 18.9444 68.4 22.6444C70.7 26.1444 74 27.3444 77.9 26.8444C80.2 26.5444 82.1 25.4444 83.6 23.5444C82.9 22.9444 82.2 22.3444 81.5 21.6444C81.3 21.8444 81.2 21.9444 81.1 22.1444C78.4 25.1444 73.9 24.8444 71.5 21.6444C70.1 19.7444 69.8 17.5444 70.2 15.3444C70.4 12.8444 71.7 10.8444 74.3 9.94445ZM95.1 23.5444C94.9 23.6444 94.8 23.7444 94.8 23.7444C94 24.3444 93.2 24.4444 92.3 24.1444C91.4 23.7444 91.3 22.9444 91.2 22.1444V10.7444C91.2 10.5444 91.2 10.9444 91.3 9.94445H95.1V6.94445H91.1V1.94445H88.1V7.34445H85.5C85.3 7.34445 85 7.54445 85 7.74445C84.9 8.44445 85 8.94445 85 9.94445H88.2V22.7444C88.2 24.3444 88.6 25.7444 90 26.5444C91.5 27.4444 94.4 27.2444 95.7 26.1444C95.9 26.0444 96 25.6444 96 25.5444C95.7 24.9444 95.4 24.2444 95.1 23.5444Z" fill="currentColor"/>
</svg>

