<svg width="102" height="91" viewBox="0 0 102 91" fill="none" xmlns="http://www.w3.org/2000/svg">
<path d="M50.9 54.7C56.0362 54.7 60.2 50.5362 60.2 45.4C60.2 40.2637 56.0362 36.1 50.9 36.1C45.7637 36.1 41.6 40.2637 41.6 45.4C41.6 50.5362 45.7637 54.7 50.9 54.7Z" fill="#149ECA"/>
<path d="M50.9 79.6C58.2 86.7 65.4 90.9 71.2 90.9C73.1 90.9 74.9 90.5 76.4 89.6C81.6 86.6 83.5 79.1 81.7 68.4C81.4 66.5 81 64.6 80.5 62.6C82.5 62 84.3 61.4 86.1 60.8C96.2 56.9 101.8 51.5 101.8 45.6C101.8 39.6 96.2 34.2 86.1 30.4C84.3 29.7 82.5 29.1 80.5 28.6C81 26.6 81.4 24.7 81.7 22.8C83.4 11.9 81.5 4.3 76.3 1.3C74.8 0.4 73 0 71.1 0C65.4 0 58.1 4.2 50.8 11.3C43.6 4.2 36.4 0 30.6 0C28.7 0 26.9 0.4 25.4 1.3C20.2 4.3 18.3 11.8 20.1 22.5C20.4 24.4 20.8 26.3 21.3 28.3C19.3 28.9 17.5 29.5 15.7 30.1C5.6 34 0 39.4 0 45.3C0 51.3 5.6 56.7 15.7 60.5C17.5 61.2 19.3 61.8 21.3 62.3C20.8 64.3 20.4 66.2 20.1 68.1C18.4 78.8 20.3 86.4 25.4 89.3C26.9 90.2 28.7 90.6 30.6 90.6C36.4 90.8 43.6 86.6 50.9 79.6ZM45.3 66.1C47.1 66.2 49 66.2 50.9 66.2C52.8 66.2 54.7 66.2 56.5 66.1C54.7 68.5 52.8 70.7 50.9 72.8C49 70.7 47.1 68.5 45.3 66.1ZM32.9 55.8C33.9 57.5 34.8 59.1 35.9 60.7C32.8 60.3 29.9 59.8 27.1 59.2C28 56.5 29 53.7 30.2 50.9C31 52.5 31.9 54.2 32.9 55.8ZM27.1 31.7C29.9 31.1 32.8 30.6 35.9 30.2C34.9 31.8 33.9 33.4 32.9 35.1C31.9 36.8 31 38.4 30.2 40.1C28.9 37.2 27.9 34.4 27.1 31.7ZM32.6 45.4C33.9 42.7 35.3 40 36.9 37.3C38.4 34.7 40.1 32.1 41.8 29.5C44.8 29.3 47.8 29.2 50.9 29.2C54.1 29.2 57.1 29.3 60 29.5C61.8 32.1 63.4 34.7 64.9 37.3C66.5 40 67.9 42.7 69.2 45.4C67.9 48.1 66.5 50.8 64.9 53.5C63.4 56.1 61.7 58.7 60 61.3C57 61.5 54 61.6 50.9 61.6C47.7 61.6 44.7 61.5 41.8 61.3C40 58.7 38.4 56.1 36.9 53.5C35.3 50.8 33.9 48.1 32.6 45.4ZM71.7 40L69 35C68 33.3 67.1 31.7 66 30.1C69.1 30.5 72 31 74.8 31.6C73.9 34.4 72.9 37.2 71.7 40ZM71.7 50.8C72.9 53.6 73.9 56.4 74.8 59.1C72 59.7 69.1 60.2 66 60.6C67 59 68 57.4 69 55.7C69.9 54.2 70.8 52.5 71.7 50.8ZM74 85.5C73.2 86 72.2 86.2 71.1 86.2C66.2 86.2 60.1 82.2 54.1 76.2C57 73.1 59.8 69.6 62.6 65.7C67.3 65.3 71.8 64.6 76 63.6C76.5 65.4 76.8 67.2 77.1 69C78.5 77.5 77.4 83.6 74 85.5ZM79.2 32.8C90.4 36 97.1 40.9 97.1 45.4C97.1 49.3 92.5 53.2 84.4 56.3C82.8 56.9 81 57.5 79.2 58C77.9 53.9 76.3 49.7 74.3 45.4C76.3 41.1 78 36.9 79.2 32.8ZM71.2 4.6C72.3 4.6 73.2 4.8 74.1 5.3C77.4 7.2 78.6 13.2 77.2 21.8C76.9 23.5 76.5 25.3 76.1 27.2C71.9 26.3 67.4 25.6 62.7 25.1C60 21.2 57.1 17.7 54.2 14.6C60.2 8.7 66.3 4.6 71.2 4.6ZM56.5 24.7C54.7 24.6 52.8 24.6 50.9 24.6C49 24.6 47.1 24.6 45.3 24.7C47.1 22.3 49 20.1 50.9 18C52.8 20.1 54.7 22.4 56.5 24.7ZM27.8 5.3C28.6 4.8 29.6 4.6 30.7 4.6C35.6 4.6 41.7 8.6 47.7 14.6C44.8 17.7 42 21.2 39.2 25.1C34.5 25.5 30 26.2 25.8 27.2C25.3 25.4 25 23.6 24.7 21.8C23.3 13.3 24.4 7.3 27.8 5.3ZM22.6 58C11.4 54.8 4.7 49.9 4.7 45.4C4.7 41.5 9.3 37.6 17.4 34.5C19 33.9 20.8 33.3 22.6 32.8C23.9 36.9 25.5 41.1 27.5 45.4C25.5 49.7 23.8 54 22.6 58ZM24.7 69C25 67.3 25.4 65.5 25.8 63.6C30 64.5 34.5 65.2 39.2 65.7C41.9 69.6 44.8 73.1 47.7 76.2C41.7 82.1 35.6 86.2 30.7 86.2C29.6 86.2 28.7 86 27.8 85.5C24.4 83.6 23.3 77.5 24.7 69Z" fill="#149ECA"/>
</svg>

