<svg width="28" height="32" fill="none" xmlns="http://www.w3.org/2000/svg"><path d="M19.648.002c-1.737.029-3.613.359-5.457 1.014-3.51 1.247-7.31 3.205-10.043 5.761C.9 9.817.381 12.46.594 13.567c.753 3.9 6.098 6.45 8.295 8.341v.012c-.648.319-5.39 2.717-6.498 5.17-1.171 2.588.185 4.445 1.084 4.695 2.784.775 5.64-.62 7.175-2.908 1.481-2.21 1.36-5.063.715-6.483.888-.234 1.923-.34 3.239-.187 3.713.434 4.441 2.753 4.302 3.723-.139.97-.917 1.505-1.177 1.666-.26.16-.34.215-.319.335.032.174.151.17.373.131.306-.052 1.952-.789 2.022-2.58.09-2.274-2.091-4.818-5.95-4.752-1.588.027-2.586.18-3.308.448a6.89 6.89 0 0 0-.164-.182c-2.385-2.545-6.797-4.345-6.61-7.766.068-1.244.5-4.519 8.473-8.492 6.531-3.254 11.761-2.358 12.664-.373 1.291 2.836-2.795 8.105-9.578 8.865-2.584.29-3.943-.71-4.281-1.084-.356-.393-.41-.41-.543-.338-.217.12-.08.468 0 .674.203.527 1.033 1.461 2.45 1.926 1.245.41 4.28.635 7.95-.785 4.108-1.59 7.317-6.013 6.375-9.709-.658-2.584-3.812-3.976-7.635-3.912Zm-9.85 23.07c.309 1.14.276 2.2-.042 3.162a5.044 5.044 0 0 1-.254.627 5.879 5.879 0 0 1-.979 1.424c-1.23 1.342-2.946 1.85-3.683 1.422-.796-.461-.399-2.352 1.027-3.86 1.534-1.622 3.742-2.664 3.742-2.664l-.003-.007.193-.104Z" fill="#CD6799"/></svg>
