<svg width="71" height="11" fill="currentColor" xmlns="http://www.w3.org/2000/svg"><path d="M4.736 5.012h-1.73V8.36c0 .893.586.88 1.73.823v1.354c-2.316.279-3.237-.363-3.237-2.177V5.012H.216v-1.45h1.283V1.686l1.507-.446v2.32h1.73v1.451Zm6.594-1.45h1.507v6.975H11.33V9.532c-.53.74-1.353 1.186-2.44 1.186-1.898 0-3.475-1.604-3.475-3.67 0-2.078 1.577-3.668 3.474-3.668 1.088 0 1.911.446 2.441 1.172v-.99Zm-2.204 5.72c1.256 0 2.204-.936 2.204-2.233 0-1.298-.948-2.232-2.204-2.232-1.255 0-2.204.934-2.204 2.232 0 1.297.949 2.232 2.204 2.232Zm6.222-6.767a.973.973 0 0 1-.962-.963.965.965 0 0 1 .962-.962.964.964 0 0 1 .963.962.974.974 0 0 1-.963.963Zm-.753 8.022V3.56h1.507v6.976h-1.507Zm3.25 0V.353h1.507v10.184h-1.507ZM29.132 3.56h1.59l-2.19 6.976h-1.479l-1.45-4.702-1.466 4.702H22.66l-2.19-6.976h1.59l1.353 4.813 1.465-4.813h1.437l1.45 4.813 1.368-4.813Zm3.46-1.046a.974.974 0 0 1-.963-.963.965.965 0 0 1 .963-.962.964.964 0 0 1 .962.962.974.974 0 0 1-.962.963Zm-.754 8.022V3.56h1.507v6.976h-1.507Zm6.92-7.157c1.562 0 2.678 1.06 2.678 2.874v4.283H39.93v-4.13c0-1.06-.614-1.618-1.563-1.618-.99 0-1.772.586-1.772 2.009v3.739H35.09V3.56h1.506v.893c.46-.726 1.214-1.074 2.163-1.074ZM48.579.77h1.507v9.766H48.58V9.532c-.53.74-1.353 1.186-2.44 1.186-1.898 0-3.475-1.604-3.475-3.67 0-2.078 1.577-3.668 3.474-3.668 1.088 0 1.911.446 2.441 1.172V.77Zm-2.204 8.51c1.256 0 2.204-.935 2.204-2.232 0-1.298-.948-2.232-2.204-2.232-1.255 0-2.204.934-2.204 2.232 0 1.297.949 2.232 2.204 2.232Zm8.761 1.437c-2.106 0-3.683-1.604-3.683-3.67 0-2.078 1.577-3.668 3.683-3.668 1.367 0 2.553.711 3.111 1.8l-1.297.753c-.307-.656-.99-1.074-1.828-1.074-1.227 0-2.162.934-2.162 2.19 0 1.255.935 2.19 2.162 2.19.837 0 1.52-.432 1.856-1.074l1.297.74c-.586 1.102-1.772 1.813-3.139 1.813Zm5.622-5.232c0 1.27 3.753.503 3.753 3.084 0 1.395-1.213 2.148-2.72 2.148-1.395 0-2.4-.628-2.846-1.632l1.297-.754c.224.628.782 1.005 1.549 1.005.67 0 1.186-.223 1.186-.781 0-1.242-3.753-.544-3.753-3.042 0-1.311 1.13-2.134 2.553-2.134 1.144 0 2.092.53 2.58 1.45l-1.269.712c-.25-.544-.74-.795-1.311-.795-.544 0-1.019.237-1.019.74Zm6.432 0c0 1.27 3.753.503 3.753 3.084 0 1.395-1.214 2.148-2.72 2.148-1.396 0-2.4-.628-2.847-1.632l1.298-.754c.223.628.78 1.005 1.548 1.005.67 0 1.186-.223 1.186-.781 0-1.242-3.753-.544-3.753-3.042 0-1.311 1.13-2.134 2.553-2.134 1.144 0 2.093.53 2.581 1.45l-1.27.712c-.25-.544-.739-.795-1.31-.795-.545 0-1.02.237-1.02.74Z" /></svg>